<svg xmlns="http://www.w3.org/2000/svg" viewBox="0 0 831.78 248.9">
  <defs>
    <style>
      .cls-1 {
        fill: red;
      }
    </style>
  </defs>
  <g id="Layer_2" data-name="Layer 2">
    <g id="Layer_1-2" data-name="Layer 1">
      <circle class="cls-1" cx="124.45" cy="124.45" r="124.45" />
      <path class="cls-1"
        d="M349.35,150.08c0,19.29-13.86,39.63-40.76,39.63H259.24V59.08h35.65c23.18,0,37.93,17,37.93,34.6,0,13.86-9.16,22.45-12.32,22.45C333.06,116.13,349.35,129.09,349.35,150.08ZM285.41,84.6v25.53H296a12.72,12.72,0,0,0,12.32-13A12.24,12.24,0,0,0,296.51,84.6Zm38.33,63.62c0-7.54-5.18-15.07-17.66-15.07H285.41V164.1h20.75C314.67,164.1,323.74,158.27,323.74,148.22Z" />
      <path class="cls-1"
        d="M432,189.71,390.44,128v61.75H364.18L364.1,59.08h42.63c24.39,0,44.41,18.8,44.41,42.3,0,16.77-10.13,31.44-24.15,36.39l37.11,51.94Zm-41.65-71.8,16.85.08a16.7,16.7,0,0,0,16.86-16.45c0-9.32-8-16.45-16.86-16.45H390.36Z" />
      <path class="cls-1"
        d="M555.92,171.48H503.65l-8.35,18.23H466.94l62.4-133.88h.81l62.48,133.88H564.19Zm-10.21-22.37-15.88-34.93-16,34.93Z" />
      <path class="cls-1"
        d="M594.82,167.18l21-14.75c5.75,9.24,14.1,13.46,25.37,13.46,12.31,0,20.58-5,20.58-12,0-9.56-15.64-17.1-29.34-23.9-14.66-7.3-30.79-15.32-30.79-36.15,0-22.61,19.12-37.52,43.11-37.52,17.83,0,32.58,7.38,38.5,23.18L663.87,93c-3.89-7.78-11.43-10.94-18.72-10.94-9.81,0-17.1,5.67-17.1,12.4,0,7.78,9.88,10.45,24.88,17.51,21.63,10.21,35.25,21.23,35.25,41.33,0,23.82-19.45,39-47.41,39C619.38,192.31,603.57,183.39,594.82,167.18Z" />
      <path class="cls-1" d="M704.06,59.08h26.26V189.71H704.06Z" />
      <path class="cls-1" d="M831.78,163.62v26.09H753V59.08h26.26V163.62Z" />
      <path
        d="M163,144.3c-6.68,16-22.16,25.26-43.95,25.26H105.22V144.3H75.06v55.43h43.8c41.39,0,69.05-20.55,76.4-55.43Z" />
      <path
        d="M105.22,105.27V79.15h13.55c22.21,0,37.93,9.56,44.49,26.12h32.08c-7.22-35.34-34.93-56.18-76.48-56.1l-43.8.09v56Z" />
    </g>
  </g>
</svg>