<svg xmlns="http://www.w3.org/2000/svg" viewBox="0 0 774.32 248.53">
  <defs>
    <style>
      .cls-1 {
        fill: red;
      }
    </style>
  </defs>
  <g id="Layer_2" data-name="Layer 2">
    <g id="Layer_1-2" data-name="Layer 1">
      <path class="cls-1"
        d="M477.25,222.53c0,11.88-8.53,24.4-25.09,24.4H421.77V166.5h22c14.28,0,23.36,10.48,23.36,21.3,0,8.54-5.64,13.82-7.59,13.82C467.23,201.62,477.25,209.61,477.25,222.53Zm-39.36-40.31v15.71h6.53a7.83,7.83,0,0,0,7.59-8,7.53,7.53,0,0,0-7.29-7.73Zm23.6,39.16c0-4.64-3.2-9.28-10.88-9.28H437.89v19.06h12.77C455.9,231.16,461.49,227.57,461.49,221.38Z" />
      <path class="cls-1"
        d="M528.16,246.93l-25.6-38v38H486.39l-.05-80.43h26.25c15,0,27.34,11.57,27.34,26,0,10.33-6.24,19.36-14.87,22.41l22.85,32Zm-25.65-44.21,10.38.05a10.13,10.13,0,1,0,0-20.25H502.51Z" />
      <path class="cls-1"
        d="M628.41,233.06,641.34,224c3.54,5.69,8.68,8.28,15.61,8.28,7.59,0,12.68-3.09,12.68-7.38,0-5.89-9.63-10.53-18.07-14.72-9-4.49-19-9.43-19-22.26,0-13.92,11.78-23.1,26.55-23.1,11,0,20.06,4.54,23.7,14.27l-11.92,8.33c-2.4-4.79-7-6.73-11.53-6.73-6,0-10.53,3.49-10.53,7.63,0,4.79,6.09,6.44,15.32,10.78,13.32,6.29,21.71,13.07,21.71,25.45,0,14.67-12,24-29.19,24C643.53,248.53,633.8,243,628.41,233.06Z" />
      <path class="cls-1" d="M695.68,166.5h16.17v80.43H695.68Z" />
      <path class="cls-1" d="M774.32,230.86v16.07h-48.5V166.5H742v64.36Z" />
      <polygon class="cls-1" points="609.37 245.68 626.87 245.68 613.8 216.93 596.68 216.93 609.37 245.68" />
      <polygon class="cls-1" points="549.46 245.68 567.16 245.68 579.88 216.93 562.58 216.93 549.46 245.68" />
      <polygon class="cls-1" points="588.55 161.38 587.93 161.38 572.34 195.55 604.08 195.55 588.55 161.38" />
      <path d="M149.33,28.53V54.07h45.08V80.25H149.33v27h52.53v26.1H123.07V2.68h78.79V28.53Z" />
      <path d="M334.5,2.68,273.37,136.59h-1L211.52,2.68h27.81l33.48,75.87L306.37,2.68Z" />
      <path d="M373.83,28.53V54.07H418.9V80.25H373.83v27h52.53v26.1h-78.8V2.68h78.8V28.53Z" />
      <path d="M524.45,107.25v26.1H445.66V2.68h26.26V107.25Z" />
      <path
        d="M529.49,68.18C529.49,30.64,560.05,0,597.42,0s68,30.64,68,68.18c0,37.2-30.64,67.68-68.09,67.68C560.05,135.86,529.49,105.38,529.49,68.18ZM638.85,68a41.43,41.43,0,1,0-41.51,41.27A41.59,41.59,0,0,0,638.85,68Z" />
      <path
        d="M682.47,2.68h45.89c25.29,0,46,19.86,46,44.18s-20.67,44-46,44H708.74v42.48H682.47Zm65.58,43.93c0-9.89-8.83-17.91-19.69-17.91H708.74V64.85l19.62.08C739.22,65,748.05,56.75,748.05,46.61Z" />
      <path d="M76.32,85.24c-5.79,13.92-19.23,21.93-38.14,21.93h-12V85.24H0v48.11H38c35.92,0,59.93-17.84,66.3-48.11Z" />
      <path
        d="M26.18,51.36V28.7H37.94c19.28,0,32.92,8.3,38.61,22.66H104.4C98.13,20.69,74.08,2.61,38,2.68L0,2.76v48.6Z" />
    </g>
  </g>
</svg>